<svg width="575" height="98" viewBox="0 0 575 98" fill="none" xmlns="http://www.w3.org/2000/svg">
<path fill-rule="evenodd" clip-rule="evenodd" d="M48.7384 0.997284C75.0923 0.997284 96.484 21.1607 96.484 46.0017C96.484 70.8427 75.0923 91.0057 48.7384 91.0057C22.384 91.0057 0.992462 70.8427 0.992462 46.0017C0.992462 21.1607 22.384 0.997284 48.7384 0.997284V0.997284Z" fill="#EF7E20"/>
<path fill-rule="evenodd" clip-rule="evenodd" d="M44.3181 4.96108L45.6341 3.35992H50.0751L22.1136 39.6534H38.2325L66.5229 3.35992H70.7991L55.0095 23.4636L92.346 23.6414L89.3417 27.603L86.0957 27.5558L70.3056 29.157L61.9172 39.8316L162.414 39.6534L168.006 41.0768L168.004 42.6142L164.223 43.3895L58.9565 43.5677L44.6473 61.1804H58.6279L70.1332 49.6166L72.4442 46.5919H92.6747C93.888 47.0789 94.4909 47.731 94.4841 48.5491C94.5485 49.1388 94.3842 49.8532 93.9907 50.5058L85.7666 61.1804L142.347 61.5364L147.775 62.636L147.776 64.1608L142.793 65.7727L82.1333 66.34L77.7072 71.1436L75.0757 72.9226L71.7058 73.3346L74.4571 69.354L86.6359 51.9336L72.9376 51.7515L59.0425 69.052L73.9772 69.2795L70.5199 71.8444L58.2029 71.1816L47.7722 84.3087H125.147L129.575 85.5943L129.555 86.897L125.094 88.2211L42.1801 88.7568L40.6997 85.9099L56.1607 65.2726L38.3969 65.0948L55.1108 42.8076L64.7405 28.3505L51.1223 28.3695L42.3651 39.8068L55.5205 39.9305L53.3342 42.9093L36.2674 42.9892L15.3699 43.034L44.3181 4.96108V4.96108Z" fill="#2C2C2B" stroke="#2C2C2B" stroke-width="0.216"/>
<path fill-rule="evenodd" clip-rule="evenodd" d="M37.7427 88.5021C37.6549 88.039 37.6756 87.664 37.8485 86.9969L68.5372 48.3855H88.9919C89.7883 48.8866 90.4938 49.4856 90.5654 50.3305C90.642 51.06 90.4015 51.7895 90.1157 52.5185L81.7992 63.0948L137.769 63.2165L144.055 64.1851L144.105 66.0274L137.793 67.6218L77.9778 67.7143L73.707 72.9416C72.9416 73.5815 72.0808 74.1702 71.0098 74.6436C69.9229 74.9289 68.8366 75.132 67.7506 75.2513L52.3937 75.1734L54.6817 70.7628L69.3142 70.7131C70.3317 70.5534 71.1966 70.2286 71.9093 69.7377L83.8968 54.4465C84.3569 53.8119 84.4542 53.3093 84.189 52.9363C83.9252 52.7454 83.4794 52.6193 82.8532 52.5584L69.8986 52.4065L54.6817 70.7633L52.3532 75.2513L43.8116 85.9494H121.023L125.406 87.2866V88.7451L121.36 90.0824L38.3046 89.7176C38.0245 89.3626 37.8111 88.9711 37.7427 88.5021V88.5021Z" fill="#51AC34"/>
<path fill-rule="evenodd" clip-rule="evenodd" d="M50.8445 25.3702C88.3589 25.3702 88.3589 25.3702 88.3589 25.3702L85.1389 29.6371L67.3477 29.55L40.7281 62.8654L57.1075 63.0281L54.0469 67.5794L37.0228 67.7245C36.2876 67.6768 35.6271 67.6023 34.9487 67.4601C34.7037 67.3997 34.5002 67.2672 34.3386 67.0632C34.181 66.6658 34.154 66.227 34.2774 65.7406L63.1436 29.6098L46.956 29.6532L50.8445 25.3702V25.3702Z" fill="#51AC34"/>
<path fill-rule="evenodd" clip-rule="evenodd" d="M41.688 5.03993L11.4007 43.1153C11.2204 43.5804 11.1693 43.953 11.3113 44.3718C11.4982 44.8826 11.8856 45.2693 12.4728 45.5313L50.5325 45.4348L158.555 45.4543L164.163 44.2924L164.169 42.7823L158.515 41.6247L37.8895 41.5984L67.2856 4.88838L62.9108 4.84976L33.5098 41.5151L18.2024 41.4776L46.395 5.04134L41.688 5.03993Z" fill="#51AC34"/>
<path d="M184 17.1029H196.829V47.9853L215.262 17.1029H228.312V66.1471H215.483V35.2647L197.05 66.1471H184V17.1029Z" fill="black"/>
<path d="M267.7 27.9118H257.23V66.1471H244.475V27.9118H234.005V17.1029H267.7V27.9118Z" fill="black"/>
<path d="M271.881 51.2941V41.5147H290.534V51.2941H271.881Z" fill="black"/>
<path d="M320.14 49.8971H312.103V66.1471H299.348V17.1029H319.698C324.957 17.1029 329.111 18.5735 332.158 21.5147C335.206 24.4559 336.729 28.4265 336.729 33.4265C336.729 38.7206 335.279 42.7892 332.379 45.6324C329.479 48.4755 325.4 49.8971 320.14 49.8971ZM312.103 27.3971V39.6029H316.38C318.837 39.6029 320.632 39.0882 321.762 38.0588C322.844 37.1275 323.384 35.6324 323.384 33.5735C323.384 31.6127 322.893 30.1422 321.91 29.1618C320.779 27.9853 318.96 27.3971 316.454 27.3971H312.103Z" fill="black"/>
<path d="M371.429 17.1029V27.9118H356.241V36.0735H370.618V46.8824H356.241V55.3382H371.429V66.1471H343.486V17.1029H371.429Z" fill="black"/>
<path d="M408.314 17.1029V27.9118H392.314V66.1471H379.559V17.1029H408.314Z" fill="black"/>
<path d="M415.92 17.1029H428.749V47.9853L447.182 17.1029H460.232V66.1471H447.403V35.2647L428.97 66.1471H415.92V17.1029Z" fill="black"/>
<path d="M522.624 41.6618C522.624 48.9167 520.043 55.0196 514.882 59.9706C509.77 64.8235 503.306 67.25 495.491 67.25C487.676 67.25 481.212 64.8235 476.1 59.9706C470.939 55.0196 468.358 48.9167 468.358 41.6618C468.358 38.2794 468.997 34.9706 470.275 31.7353C471.602 28.5 473.544 25.6814 476.1 23.2794C481.212 18.4265 487.676 16 495.491 16C503.306 16 509.77 18.4265 514.882 23.2794C517.438 25.6814 519.355 28.5 520.633 31.7353C521.96 34.9706 522.624 38.2794 522.624 41.6618ZM495.491 28.3529C491.46 28.3529 488.142 29.652 485.537 32.25C482.932 34.799 481.63 38.0098 481.63 41.8824C481.63 45.4608 482.932 48.5 485.537 51C488.241 53.598 491.559 54.8971 495.491 54.8971C499.522 54.8971 502.815 53.6226 505.371 51.0735C508.025 48.4265 509.352 45.2892 509.352 41.6618C509.352 37.9363 508.025 34.799 505.371 32.25C502.618 29.652 499.325 28.3529 495.491 28.3529Z" fill="black"/>
<path d="M543.52 17.1029V35.4118H561.952V17.1029H574.781V66.1471H561.952V46.2941H543.52V66.1471H530.764V17.1029H543.52Z" fill="black"/>
<path d="M184 76.8101H186.365V85.8117L195.693 75.7588V90.4439H193.328V81.3437L184 91.3966V76.8101Z" fill="black"/>
<path d="M200.166 90.4439V76.8101H202.53V82.395H208.968V76.8101H211.333V90.4439H208.968V84.5633H202.53V90.4439H200.166Z" fill="black"/>
<path d="M223.044 98V90.6739C220.658 90.6739 218.742 90.0825 217.297 88.8998C215.72 87.6295 214.932 85.8665 214.932 83.6106C214.932 81.3766 215.709 79.6245 217.264 78.3542C218.665 77.1715 220.592 76.5801 223.044 76.5801V68.5312H225.409V76.5801C227.862 76.5801 229.788 77.1715 231.19 78.3542C232.744 79.6245 233.522 81.3766 233.522 83.6106C233.522 85.8665 232.733 87.6295 231.157 88.8998C229.712 90.0825 227.796 90.6739 225.409 90.6739V98H223.044ZM223.044 88.5713V78.6827C221.49 78.6827 220.275 78.9674 219.399 79.5369C218.041 80.391 217.362 81.7489 217.362 83.6106C217.362 85.3627 217.997 86.6878 219.267 87.5857C220.187 88.2428 221.446 88.5713 223.044 88.5713ZM225.409 78.6827V88.5713C227.008 88.5713 228.267 88.2428 229.186 87.5857C230.456 86.6878 231.091 85.3627 231.091 83.6106C231.091 81.7489 230.413 80.391 229.055 79.5369C228.179 78.9674 226.964 78.6827 225.409 78.6827Z" fill="black"/>
<path d="M248.676 88.8013C247.318 90.1592 245.599 90.8381 243.519 90.8381C241.439 90.8381 239.709 90.1592 238.33 88.8013C236.972 87.4434 236.294 85.735 236.294 83.6763C236.294 81.5956 236.972 79.8763 238.33 78.5184C239.709 77.1605 241.439 76.4816 243.519 76.4816C245.599 76.4816 247.318 77.1605 248.676 78.5184C250.055 79.8763 250.745 81.5956 250.745 83.6763C250.745 85.735 250.055 87.4434 248.676 88.8013ZM246.902 79.9311C245.983 79.0331 244.855 78.5841 243.519 78.5841C242.184 78.5841 241.045 79.0441 240.103 79.9639C239.184 80.8619 238.724 82.0994 238.724 83.6763C238.724 85.2532 239.195 86.4907 240.136 87.3886C241.078 88.2866 242.205 88.7356 243.519 88.7356C244.833 88.7356 245.961 88.2866 246.902 87.3886C247.844 86.4907 248.315 85.2532 248.315 83.6763C248.315 82.0775 247.844 80.8291 246.902 79.9311Z" fill="black"/>
<path d="M256.736 88.5385V98H254.371V76.8101H256.736V78.7155C257.941 77.2262 259.495 76.4816 261.4 76.4816C263.437 76.4816 265.046 77.2043 266.228 78.6498C267.433 80.0735 268.035 81.7599 268.035 83.7091C268.035 85.6803 267.444 87.3667 266.261 88.7684C265.079 90.1482 263.491 90.8381 261.499 90.8381C259.506 90.8381 257.919 90.0716 256.736 88.5385ZM261.17 88.7356C262.506 88.7356 263.579 88.2537 264.389 87.2901C265.199 86.3045 265.604 85.1108 265.604 83.7091C265.604 82.1322 265.155 80.8838 264.258 79.9639C263.36 79.0441 262.32 78.5841 261.137 78.5841C259.955 78.5841 258.904 79.0441 257.984 79.9639C257.065 80.8838 256.605 82.1213 256.605 83.6763C256.605 85.0999 257.021 86.3045 257.853 87.2901C258.707 88.2537 259.813 88.7356 261.17 88.7356Z" fill="black"/>
<path d="M270.083 90.4439L273.368 75.7588L279.017 86.863L284.535 75.7588L287.819 90.4439H285.389L283.582 82.0008L278.951 91.3966L274.254 82.0008L272.514 90.4439H270.083Z" fill="black"/>
<path d="M301.156 78.7484V76.8101H303.521V90.4439H301.156V88.5385C299.974 90.0716 298.419 90.8381 296.492 90.8381C294.653 90.8381 293.088 90.203 291.796 88.9327C290.504 87.6624 289.858 85.8884 289.858 83.6106C289.858 81.3766 290.493 79.6354 291.763 78.387C293.055 77.1167 294.631 76.4816 296.492 76.4816C298.463 76.4816 300.018 77.2372 301.156 78.7484ZM296.755 78.5841C295.507 78.5841 294.445 79.0331 293.569 79.9311C292.715 80.8072 292.288 82.0337 292.288 83.6106C292.288 85.1218 292.683 86.3592 293.471 87.3229C294.281 88.2647 295.376 88.7356 296.755 88.7356C298.135 88.7356 299.23 88.2428 300.04 87.2572C300.872 86.2716 301.288 85.067 301.288 83.6434C301.288 82.0227 300.828 80.7743 299.908 79.8982C298.989 79.0222 297.938 78.5841 296.755 78.5841Z" fill="black"/>
<path d="M308 90.4439V76.8101H310.365V88.2756H316.474V76.8101H318.839V88.2756H321.072V94.0577H318.904V90.4439H308Z" fill="black"/>
<path d="M323.556 76.8101H325.921V85.8117L335.249 75.7588V90.4439H332.884V81.3437L323.556 91.3966V76.8101Z" fill="black"/>
<path d="M351.25 88.8013C349.893 90.1592 348.174 90.8381 346.094 90.8381C344.013 90.8381 342.284 90.1592 340.904 88.8013C339.547 87.4434 338.868 85.735 338.868 83.6763C338.868 81.5956 339.547 79.8763 340.904 78.5184C342.284 77.1605 344.013 76.4816 346.094 76.4816C348.174 76.4816 349.893 77.1605 351.25 78.5184C352.63 79.8763 353.319 81.5956 353.319 83.6763C353.319 85.735 352.63 87.4434 351.25 88.8013ZM349.477 79.9311C348.557 79.0331 347.429 78.5841 346.094 78.5841C344.758 78.5841 343.619 79.0441 342.678 79.9639C341.758 80.8619 341.298 82.0994 341.298 83.6763C341.298 85.2532 341.769 86.4907 342.711 87.3886C343.652 88.2866 344.78 88.7356 346.094 88.7356C347.407 88.7356 348.535 88.2866 349.477 87.3886C350.418 86.4907 350.889 85.2532 350.889 83.6763C350.889 82.0775 350.418 80.8291 349.477 79.9311Z" fill="black"/>
<path d="M356.946 90.4439V76.8101H359.311V82.395H365.748V76.8101H368.113V90.4439H365.748V84.5633H359.311V90.4439H356.946Z" fill="black"/>
<path d="M372.566 90.4439V76.8101H374.931V82.395H381.368V76.8101H383.733V90.4439H381.368V84.5633H374.931V90.4439H372.566Z" fill="black"/>
<path d="M388.186 90.4439V76.8101H390.551V82.0337H392.982C394.865 82.0337 396.244 82.4826 397.12 83.3806C397.821 84.0815 398.171 85.0342 398.171 86.2388C398.171 87.5091 397.766 88.5275 396.956 89.2941C396.146 90.0606 394.81 90.4439 392.949 90.4439H388.186ZM390.551 88.3413H392.752C393.737 88.3413 394.438 88.2209 394.854 87.98C395.445 87.5857 395.741 87.0053 395.741 86.2388C395.741 85.4503 395.456 84.8809 394.887 84.5304C394.492 84.2676 393.792 84.1362 392.785 84.1362H390.551V88.3413ZM399.813 90.4439V76.8101H402.178V90.4439H399.813Z" fill="black"/>
<path d="M416.745 85.8774L418.716 86.9615C418.256 87.8376 417.698 88.5713 417.041 89.1627C415.793 90.2796 414.282 90.8381 412.508 90.8381C410.669 90.8381 409.082 90.2468 407.746 89.0641C406.432 87.8595 405.775 86.0745 405.775 83.7091C405.775 81.6285 406.366 79.9092 407.549 78.5513C408.753 77.1715 410.362 76.4816 412.377 76.4816C414.654 76.4816 416.373 77.3138 417.533 78.9784C418.453 80.2925 418.88 82.0008 418.814 84.1034H408.206C408.228 85.4832 408.655 86.6002 409.487 87.4543C410.319 88.3085 411.337 88.7356 412.541 88.7356C413.614 88.7356 414.545 88.4071 415.333 87.75C415.946 87.2244 416.417 86.6002 416.745 85.8774ZM408.37 82.1322H416.384C416.187 81.059 415.716 80.2049 414.972 79.5697C414.249 78.9127 413.384 78.5841 412.377 78.5841C411.392 78.5841 410.516 78.9236 409.749 79.6026C409.005 80.2596 408.545 81.1028 408.37 82.1322Z" fill="black"/>
<path d="M439.041 78.9784H434.772V90.4439H432.407V78.9784H428.137V76.8101H439.041V78.9784Z" fill="black"/>
<path d="M451.322 85.8774L453.292 86.9615C452.832 87.8376 452.274 88.5713 451.617 89.1627C450.369 90.2796 448.858 90.8381 447.085 90.8381C445.245 90.8381 443.658 90.2468 442.322 89.0641C441.008 87.8595 440.352 86.0745 440.352 83.7091C440.352 81.6285 440.943 79.9092 442.125 78.5513C443.329 77.1715 444.939 76.4816 446.953 76.4816C449.23 76.4816 450.949 77.3138 452.11 78.9784C453.029 80.2925 453.456 82.0008 453.391 84.1034H442.782C442.804 85.4832 443.231 86.6002 444.063 87.4543C444.895 88.3085 445.913 88.7356 447.117 88.7356C448.19 88.7356 449.121 88.4071 449.909 87.75C450.522 87.2244 450.993 86.6002 451.322 85.8774ZM442.946 82.1322H450.96C450.763 81.059 450.292 80.2049 449.548 79.5697C448.825 78.9127 447.96 78.5841 446.953 78.5841C445.968 78.5841 445.092 78.9236 444.326 79.6026C443.581 80.2596 443.121 81.1028 442.946 82.1322Z" fill="black"/>
<path d="M454.727 90.4439L460.54 83.1506L455.581 76.8101H458.471L461.985 81.4423L465.565 76.8101H468.456L463.463 83.1835L469.113 90.4439H466.222L461.92 84.8918L457.617 90.4439H454.727Z" fill="black"/>
<path d="M471.612 90.4439V76.8101H473.977V82.395H480.414V76.8101H482.779V90.4439H480.414V84.5633H473.977V90.4439H471.612Z" fill="black"/>
<path d="M498.761 88.8013C497.403 90.1592 495.684 90.8381 493.604 90.8381C491.524 90.8381 489.794 90.1592 488.415 88.8013C487.057 87.4434 486.378 85.735 486.378 83.6763C486.378 81.5956 487.057 79.8763 488.415 78.5184C489.794 77.1605 491.524 76.4816 493.604 76.4816C495.684 76.4816 497.403 77.1605 498.761 78.5184C500.14 79.8763 500.83 81.5956 500.83 83.6763C500.83 85.735 500.14 87.4434 498.761 88.8013ZM496.987 79.9311C496.068 79.0331 494.94 78.5841 493.604 78.5841C492.269 78.5841 491.13 79.0441 490.188 79.9639C489.269 80.8619 488.809 82.0994 488.809 83.6763C488.809 85.2532 489.28 86.4907 490.221 87.3886C491.163 88.2866 492.29 88.7356 493.604 88.7356C494.918 88.7356 496.046 88.2866 496.987 87.3886C497.929 86.4907 498.4 85.2532 498.4 83.6763C498.4 82.0775 497.929 80.8291 496.987 79.9311Z" fill="black"/>
<path d="M514.77 76.8101V90.4439H512.405V78.9784H507.544V85.1218C507.544 86.8958 507.193 88.2099 506.493 89.0641C505.705 90.0278 504.61 90.5096 503.208 90.5096C503.033 90.5096 502.792 90.4877 502.486 90.4439V88.2756C502.705 88.3194 502.88 88.3413 503.011 88.3413C503.778 88.3413 504.347 88.0457 504.719 87.4543C505.026 86.9725 505.179 86.195 505.179 85.1218V76.8101H514.77Z" fill="black"/>
<path d="M530.771 88.8013C529.414 90.1592 527.695 90.8381 525.615 90.8381C523.534 90.8381 521.805 90.1592 520.425 88.8013C519.068 87.4434 518.389 85.735 518.389 83.6763C518.389 81.5956 519.068 79.8763 520.425 78.5184C521.805 77.1605 523.534 76.4816 525.615 76.4816C527.695 76.4816 529.414 77.1605 530.771 78.5184C532.151 79.8763 532.84 81.5956 532.84 83.6763C532.84 85.735 532.151 87.4434 530.771 88.8013ZM528.998 79.9311C528.078 79.0331 526.95 78.5841 525.615 78.5841C524.279 78.5841 523.14 79.0441 522.199 79.9639C521.279 80.8619 520.819 82.0994 520.819 83.6763C520.819 85.2532 521.29 86.4907 522.232 87.3886C523.173 88.2866 524.301 88.7356 525.615 88.7356C526.928 88.7356 528.056 88.2866 528.998 87.3886C529.939 86.4907 530.41 85.2532 530.41 83.6763C530.41 82.0775 529.939 80.8291 528.998 79.9311Z" fill="black"/>
<path d="M536.467 90.4439V76.8101H544.547V78.9784H538.832V90.4439H536.467Z" fill="black"/>
<path d="M546.923 76.8101H549.288V85.8117L558.616 75.7588V90.4439H556.251V81.3437L546.923 91.3966V76.8101Z" fill="black"/>
<path d="M563.089 76.8101H565.453V85.8117L574.781 75.7588V90.4439H572.416V81.3437L563.089 91.3966V76.8101Z" fill="black"/>
</svg>
